<svg width="32" height="32" viewBox="0 0 32 32" fill="none" xmlns="http://www.w3.org/2000/svg">
<g clip-path="url(#clip0_49_1068)">
<path d="M19.5 12V4C19.5 3.724 19.2765 3.5 19 3.5H4C3.7235 3.5 3.5 3.724 3.5 4V12C3.5 12.276 3.7235 12.5 4 12.5H19C19.2765 12.5 19.5 12.276 19.5 12ZM18.5 11.5H4.5V4.5H18.5V11.5Z" fill="#7D9B73"/>
<path d="M7.5 15C7.5 14.724 7.2765 14.5 7 14.5H4C3.7235 14.5 3.5 14.724 3.5 15V18C3.5 18.276 3.7235 18.5 4 18.5H7C7.2765 18.5 7.5 18.276 7.5 18V15ZM6.5 17.5H4.5V15.5H6.5V17.5Z" fill="#7D9B73"/>
<path d="M13.5 15C13.5 14.724 13.2765 14.5 13 14.5H10C9.7235 14.5 9.5 14.724 9.5 15V18C9.5 18.276 9.7235 18.5 10 18.5H13C13.2765 18.5 13.5 18.276 13.5 18V15ZM12.5 17.5H10.5V15.5H12.5V17.5Z" fill="#7D9B73"/>
<path d="M7.5 20C7.5 19.724 7.2765 19.5 7 19.5H4C3.7235 19.5 3.5 19.724 3.5 20V23C3.5 23.276 3.7235 23.5 4 23.5H7C7.2765 23.5 7.5 23.276 7.5 23V20ZM6.5 22.5H4.5V20.5H6.5V22.5Z" fill="#7D9B73"/>
<path d="M13.5 20C13.5 19.724 13.2765 19.5 13 19.5H10C9.7235 19.5 9.5 19.724 9.5 20V23C9.5 23.276 9.7235 23.5 10 23.5H13C13.2765 23.5 13.5 23.276 13.5 23V20ZM12.5 22.5H10.5V20.5H12.5V22.5Z" fill="#7D9B73"/>
<path d="M7 24.5H4C3.7235 24.5 3.5 24.724 3.5 25V28C3.5 28.276 3.7235 28.5 4 28.5H7C7.2765 28.5 7.5 28.276 7.5 28V25C7.5 24.724 7.2765 24.5 7 24.5ZM6.5 27.5H4.5V25.5H6.5V27.5Z" fill="#7D9B73"/>
<path d="M13 24.5H10C9.7235 24.5 9.5 24.724 9.5 25V28C9.5 28.276 9.7235 28.5 10 28.5H13C13.2765 28.5 13.5 28.276 13.5 28V25C13.5 24.724 13.2765 24.5 13 24.5ZM12.5 27.5H10.5V25.5H12.5V27.5Z" fill="#7D9B73"/>
<path d="M8 10.5H10C10.2765 10.5 10.5 10.276 10.5 10V6C10.5 5.724 10.2765 5.5 10 5.5H8C7.7235 5.5 7.5 5.724 7.5 6V10C7.5 10.276 7.7235 10.5 8 10.5ZM8.5 6.5H9.5V9.5H8.5V6.5Z" fill="#7D9B73"/>
<path d="M11.5 10.5H13.5C13.7765 10.5 14 10.276 14 10V6C14 5.724 13.7765 5.5 13.5 5.5H11.5C11.2235 5.5 11 5.724 11 6V10C11 10.276 11.2235 10.5 11.5 10.5ZM12 6.5H13V9.5H12V6.5Z" fill="#7D9B73"/>
<path d="M15 10.5H17C17.2765 10.5 17.5 10.276 17.5 10V6C17.5 5.724 17.2765 5.5 17 5.5H15C14.7235 5.5 14.5 5.724 14.5 6V10C14.5 10.276 14.7235 10.5 15 10.5ZM15.5 6.5H16.5V9.5H15.5V6.5Z" fill="#7D9B73"/>
<path d="M6.5 9.5H5.5V10.5H6.5V9.5Z" fill="#7D9B73"/>
<path d="M23.5 22.5V17.5H22.5V22.5H17.5V23.5H22.5V28.5H23.5V23.5H28.5V22.5H23.5Z" fill="#7D9B73"/>
<path d="M21.5 19.5H18.5V20.5H21.5V19.5Z" fill="#7D9B73"/>
<path d="M21.5 25.5H18.5V26.5H21.5V25.5Z" fill="#7D9B73"/>
<path d="M23 14.5C22.831 14.5 22.6665 14.5155 22.5 14.5255V1C22.5 0.724 22.2765 0.5 22 0.5H1C0.7235 0.5 0.5 0.724 0.5 1V31C0.5 31.276 0.7235 31.5 1 31.5H17.5V30.5H1.5V1.5H21.5V14.6405C20.7995 14.766 20.13 14.9765 19.5 15.2625V15C19.5 14.724 19.2765 14.5 19 14.5H16C15.7235 14.5 15.5 14.724 15.5 15V18C15.5 18.2135 15.635 18.393 15.8235 18.4645C14.99 19.7785 14.5 21.3315 14.5 23C14.5 26.566 16.7515 29.778 20.1025 30.993C21.03 31.3295 22.005 31.5 23 31.5C27.687 31.5 31.5 27.687 31.5 23C31.5 18.313 27.687 14.5 23 14.5ZM16.5 17.5V15.5H18.5V15.802C17.76 16.2665 17.095 16.8375 16.531 17.5H16.5ZM23 30.5C22.121 30.5 21.261 30.3495 20.4435 30.053C17.487 28.981 15.5 26.1465 15.5 23C15.5 18.8645 18.8645 15.5 23 15.5C27.1355 15.5 30.5 18.8645 30.5 23C30.5 27.1355 27.1355 30.5 23 30.5Z" fill="#7D9B73"/>
<path d="M26.6465 24.6465L26 25.293L25.3535 24.6465L24.6465 25.3535L25.293 26L24.6465 26.6465L25.3535 27.3535L26 26.707L26.6465 27.3535L27.3535 26.6465L26.707 26L27.3535 25.3535L26.6465 24.6465Z" fill="#7D9B73"/>
<path d="M25.5 21.5H26.5V20.5H27.5V19.5H26.5V18.5H25.5V19.5H24.5V20.5H25.5V21.5Z" fill="#7D9B73"/>
<path d="M20.5 24H19.5V25H20.5V24Z" fill="#7D9B73"/>
<path d="M20.5 27H19.5V28H20.5V27Z" fill="#7D9B73"/>
</g>
<defs>
<clipPath id="clip0_49_1068">
<rect width="32" height="32" fill="white"/>
</clipPath>
</defs>
</svg>
