<svg width="32" height="32" viewBox="0 0 32 32" fill="none" xmlns="http://www.w3.org/2000/svg">
<path d="M4 31.5H27.5V5.8L22.2 0.5H4V31.5ZM22.5 2.2L25.8 5.5H22.5V2.2ZM5 1.5H21.5V6.5H26.5V30.5H5V1.5Z" fill="#7D9B73"/>
<path d="M19.75 5.5H12.25V6.5H19.75V5.5Z" fill="#7D9B73"/>
<path d="M23.5 9.5H8.5V10.5H23.5V9.5Z" fill="#7D9B73"/>
<path d="M23.5 12H8.5V13H23.5V12Z" fill="#7D9B73"/>
<path d="M23.5 14.5H8.5V15.5H23.5V14.5Z" fill="#7D9B73"/>
<path d="M23.5 17H8.5V18H23.5V17Z" fill="#7D9B73"/>
<path d="M15.975 25.0248L14.35 23.3998L13.65 24.0998L16.025 26.4748L19.625 22.3248L18.875 21.6748L15.975 25.0248Z" fill="#7D9B73"/>
</svg>
