<svg width="118" height="36" fill="none" xmlns="http://www.w3.org/2000/svg"><mask id="a" style="mask-type:alpha" maskUnits="userSpaceOnUse" x="0" y="7" width="117" height="23"><path d="m15.96 8-5.28 15.33L5.4 8H.51l8.13 21h4.11l8.1-21h-4.89Zm11.547 17.04v-4.86h8.64v-3.66h-8.64v-4.56h10.14V8h-14.73v21h15.03v-3.96h-10.44Zm30 .45v-1.56c0-2.13-.81-3.54-3.12-4.62 1.5-.93 2.91-2.34 2.91-4.98 0-3.57-2.34-6.33-7.83-6.33h-9.06v21h4.59v-7.62h5.01c1.8 0 2.91 1.05 2.91 2.7v1.41c0 1.74.12 2.61.6 3.51h4.59c-.51-.9-.6-1.77-.6-3.51Zm-8.22-7.71h-4.29v-5.82h4.38c2.04 0 3.18.9 3.18 2.79 0 2.01-.84 3.03-3.27 3.03Zm15.779 7.26v-4.86h8.64v-3.66h-8.64v-4.56h10.14V8h-14.73v21h15.03v-3.96h-10.44Zm23.07-8.22-3.24-.66c-1.77-.33-2.22-1.26-2.22-2.25 0-.96.9-2.4 3.15-2.4 2.16 0 3.42.84 3.66 2.67h4.71c-.36-4.29-3.63-6.45-8.37-6.45-4.74 0-7.83 2.43-7.83 6.06 0 3.93 2.7 5.34 6.21 6.03l2.76.51c2.13.39 3.06 1.02 3.06 2.55 0 1.41-1.44 2.61-3.81 2.61-2.64 0-3.63-1.5-3.96-3.36h-4.74c.27 4.59 3.54 7.14 8.64 7.14 4.8 0 8.61-2.19 8.61-6.33 0-3.51-1.86-5.16-6.63-6.12Zm19.423.63 8.07-9.45h-5.25l-8.34 9.75V8h-4.59v21h4.59v-5.07l2.94-3.45v.24l6.39 8.28h5.07l-8.88-11.55Z" fill="#fff"/></mask><g mask="url(#a)"><path fill="url(#b)" d="M0 4h118v28H0z"/></g><defs><linearGradient id="b" x1="0" y1="18" x2="118" y2="18" gradientUnits="userSpaceOnUse"><stop stop-color="#7D9B73"/><stop offset=".307" stop-color="#DCEBCB"/><stop offset=".578" stop-color="#DCEBCB"/><stop offset=".979" stop-color="#A2B09D"/></linearGradient></defs></svg>