<?xml version="1.0" encoding="UTF-8" standalone="no"?>
<!DOCTYPE svg PUBLIC "-//W3C//DTD SVG 1.1//EN" "http://www.w3.org/Graphics/SVG/1.1/DTD/svg11.dtd">
<svg width="100%" height="100%" viewBox="0 0 55 40" version="1.1" xmlns="http://www.w3.org/2000/svg" xmlns:xlink="http://www.w3.org/1999/xlink" xml:space="preserve" xmlns:serif="http://www.serif.com/" style="fill-rule:evenodd;clip-rule:evenodd;stroke-linejoin:round;stroke-miterlimit:2;">
    <g transform="matrix(1,0,0,1,-307.5,-74.5)">
        <g transform="matrix(1,0,0,1,0.0212364,0.486194)">
            <path d="M327.179,79.314C323.079,83.714 320.329,88.364 318.929,93.264C321.629,93.264 323.954,94.264 325.904,96.264C327.854,98.264 328.829,100.614 328.829,103.314C328.829,106.014 327.854,108.339 325.904,110.289C323.954,112.239 321.579,113.214 318.779,113.214C315.479,113.214 312.854,111.889 310.904,109.239C308.954,106.589 307.979,103.164 307.979,98.964C307.979,95.364 308.929,91.739 310.829,88.089C312.729,84.439 316.079,79.914 320.879,74.514L327.179,79.314ZM360.179,79.314C356.079,83.714 353.329,88.364 351.929,93.264C354.629,93.264 356.954,94.264 358.904,96.264C360.854,98.264 361.829,100.614 361.829,103.314C361.829,106.014 360.854,108.339 358.904,110.289C356.954,112.239 354.579,113.214 351.779,113.214C348.479,113.214 345.854,111.889 343.904,109.239C341.954,106.589 340.979,103.164 340.979,98.964C340.979,95.364 341.929,91.739 343.829,88.089C345.729,84.439 349.079,79.914 353.879,74.514L360.179,79.314Z" style="fill:none;fill-rule:nonzero;stroke:white;stroke-width:1px;"/>
        </g>
    </g>
</svg>
