<svg width="32" height="32" viewBox="0 0 32 32" fill="none" xmlns="http://www.w3.org/2000/svg">
<path d="M9.22792 19.7209C9.1535 19.7209 9.11629 19.7209 9.04187 19.7209C8.55815 19.6464 8.26048 19.2371 8.00001 18.9395C7.88838 18.8278 7.73955 18.6046 7.62792 18.5674C7.5535 18.5302 7.29304 18.6046 7.10699 18.6046C6.7349 18.679 6.25118 18.7534 5.84187 18.5302C5.43257 18.2697 5.24652 17.8232 5.1349 17.4511C5.06048 17.3023 4.98606 17.0418 4.91164 16.9674C4.83722 16.893 4.57676 16.8557 4.39071 16.8557C4.01862 16.7813 3.5349 16.7069 3.20001 16.3348C2.90234 15.9627 2.90234 15.479 2.90234 15.0697C2.90234 14.8836 2.90234 14.6232 2.86513 14.5488C2.82792 14.4743 2.56745 14.3255 2.41862 14.2511C2.08373 14.065 1.63722 13.8046 1.48838 13.3581C1.33955 12.9116 1.48838 12.465 1.63722 12.0929C1.71164 11.9441 1.78606 11.6836 1.78606 11.572C1.78606 11.4976 1.60001 11.2743 1.48838 11.1627C1.22792 10.865 0.893036 10.493 0.893036 10.0092C0.893036 9.52551 1.22792 9.15341 1.48838 8.85574C1.60001 8.74411 1.78606 8.52086 1.78606 8.44644C1.78606 8.37202 1.71164 8.11155 1.63722 7.92551C1.48838 7.55341 1.33955 7.1069 1.48838 6.66039C1.63722 6.21388 2.08373 5.95341 2.41862 5.76737C2.56745 5.69295 2.79071 5.54411 2.86513 5.46969C2.90234 5.39528 2.90234 5.13481 2.90234 4.94876C2.90234 4.53946 2.90234 4.05574 3.20001 3.68365C3.49769 3.31155 3.98141 3.23714 4.39071 3.16272C4.57676 3.12551 4.83722 3.0883 4.91164 3.05109C4.98606 2.97667 5.06048 2.75341 5.1349 2.56737C5.24652 2.19528 5.43257 1.74876 5.84187 1.4883C6.25118 1.26504 6.7349 1.33946 7.10699 1.41388C7.29304 1.45109 7.5535 1.4883 7.62792 1.45109C7.70234 1.41388 7.88838 1.22783 8.00001 1.079C8.26048 0.85574 8.55815 0.483647 9.04187 0.372019C9.52559 0.297601 9.9349 0.520856 10.2698 0.744112C10.4186 0.818531 10.6419 0.967368 10.7535 0.967368C10.8651 0.967368 11.0884 0.818531 11.2372 0.744112C11.5721 0.558066 11.9814 0.297601 12.4651 0.372019C12.9488 0.446438 13.2465 0.85574 13.507 1.15341C13.6186 1.26504 13.7675 1.4883 13.8791 1.52551C13.9535 1.56272 14.214 1.52551 14.4 1.4883C14.7721 1.41388 15.2558 1.33946 15.6651 1.56272C16.0744 1.78597 16.2605 2.26969 16.3721 2.64179C16.4465 2.79062 16.5209 3.05109 16.5954 3.12551C16.6698 3.19993 16.9302 3.23714 17.1163 3.23714C17.4884 3.31155 17.9721 3.38597 18.307 3.75807C18.6047 4.13016 18.6047 4.61388 18.6047 5.02318C18.6047 5.20923 18.6047 5.46969 18.6419 5.54411C18.6791 5.61853 18.9395 5.76737 19.0884 5.84179C19.4233 6.02783 19.8698 6.2883 20.0186 6.73481C20.1675 7.18132 20.0186 7.62783 19.8698 7.99993C19.7954 8.14876 19.7209 8.40923 19.7209 8.52086C19.7209 8.59528 19.907 8.81853 20.0186 8.93016C20.2791 9.22783 20.614 9.59993 20.614 10.0836C20.614 10.5674 20.2791 10.9395 20.0186 11.2371C19.907 11.3488 19.7209 11.572 19.7209 11.6464C19.7209 11.7209 19.7954 11.9813 19.8698 12.1674C20.0186 12.5395 20.1675 12.986 20.0186 13.4325C19.8698 13.879 19.4233 14.1395 19.0884 14.3255C18.9395 14.3999 18.7163 14.5488 18.6419 14.6232C18.6047 14.6976 18.6047 14.9581 18.6047 15.1441C18.6047 15.5534 18.6047 16.0371 18.307 16.4092C18.0093 16.7813 17.5256 16.8557 17.1163 16.9302C16.9302 16.9674 16.6698 17.0046 16.5954 17.0418C16.5209 17.1162 16.4465 17.3395 16.3721 17.5255C16.2605 17.8976 16.0744 18.3441 15.6651 18.6046C15.2558 18.8278 14.7721 18.7534 14.4 18.679C14.214 18.6418 13.9535 18.6046 13.8791 18.6418C13.8047 18.679 13.6186 18.9023 13.507 19.0139C13.2465 19.3116 12.9488 19.6836 12.4651 19.7953C11.9814 19.8697 11.5721 19.6464 11.2372 19.4232C11.0884 19.3488 10.8651 19.1999 10.7535 19.1999C10.6419 19.1999 10.4186 19.3488 10.2698 19.4232C9.97211 19.5348 9.63722 19.7209 9.22792 19.7209ZM7.5535 17.4511C7.70234 17.4511 7.85118 17.4883 8.03722 17.5255C8.40932 17.6743 8.66978 17.972 8.89304 18.2325C9.00466 18.3813 9.19071 18.6046 9.26513 18.6046C9.33955 18.6046 9.5628 18.4557 9.71164 18.3813C10.0093 18.1953 10.3814 18.0092 10.7535 18.0092C11.1628 18.0092 11.4977 18.2325 11.7954 18.3813C11.9442 18.4557 12.1675 18.6046 12.2419 18.6046C12.3163 18.5674 12.5023 18.3441 12.614 18.2325C12.8372 17.972 13.0977 17.6371 13.4698 17.5255C13.8419 17.3767 14.2512 17.4511 14.5861 17.5255C14.7349 17.5627 15.0326 17.5999 15.107 17.5627C15.1814 17.5255 15.2558 17.265 15.3302 17.079C15.4419 16.7441 15.5907 16.372 15.8884 16.1116C16.1861 15.8511 16.5954 15.7767 16.9302 15.7395C17.0791 15.7023 17.3768 15.665 17.4512 15.6278C17.4884 15.5534 17.4884 15.2929 17.4884 15.1069C17.4884 14.772 17.4884 14.3627 17.6744 14.0278C17.8605 13.693 18.2326 13.5069 18.5302 13.3209C18.6791 13.2464 18.9395 13.0976 18.9768 13.0232C18.9768 12.9488 18.9023 12.6883 18.8279 12.5395C18.7163 12.2046 18.5675 11.8325 18.6419 11.4232C18.7163 11.0511 18.9768 10.7534 19.2 10.493C19.3116 10.3813 19.4977 10.1581 19.4977 10.0464C19.4977 9.97202 19.2744 9.74876 19.2 9.59993C18.9768 9.33946 18.7163 9.04179 18.6419 8.66969C18.5675 8.26039 18.7163 7.8883 18.8279 7.55341C18.9023 7.40458 18.9768 7.14411 18.9768 7.06969C18.9395 6.99528 18.6791 6.84644 18.5302 6.77202C18.2326 6.58597 17.8605 6.39993 17.6744 6.06504C17.4884 5.73016 17.4884 5.32086 17.4884 4.98597C17.4884 4.79993 17.4884 4.53946 17.4512 4.46504C17.3768 4.42783 17.1163 4.35342 16.9302 4.35342C16.5954 4.279 16.1861 4.24179 15.8884 3.98132C15.5907 3.72086 15.4419 3.34876 15.3302 3.01388C15.293 2.86504 15.1814 2.60458 15.107 2.53016C15.0326 2.49295 14.7721 2.56737 14.5861 2.60458C14.2512 2.679 13.8419 2.75341 13.4698 2.60458C13.0977 2.45574 12.8372 2.15807 12.614 1.8976C12.5023 1.74876 12.3163 1.52551 12.2419 1.52551C12.1675 1.52551 11.9442 1.67434 11.7954 1.74876C11.4977 1.93481 11.1256 2.12086 10.7535 2.12086C10.3814 2.12086 10.0093 1.8976 9.71164 1.74876C9.5628 1.67434 9.33955 1.52551 9.26513 1.52551C9.19071 1.56272 9.00466 1.78597 8.89304 1.8976C8.66978 2.15807 8.40932 2.49295 8.03722 2.60458C7.66513 2.75341 7.25583 2.679 6.92094 2.60458C6.77211 2.56737 6.47443 2.53016 6.40001 2.56737C6.32559 2.60458 6.25118 2.86504 6.17676 3.05109C6.06513 3.34876 5.9535 3.72086 5.65583 3.94411C5.35815 4.20458 4.94885 4.279 4.61397 4.31621C4.46513 4.35342 4.16745 4.39062 4.09304 4.42783C4.05583 4.50225 4.05583 4.76272 4.05583 4.94876C4.05583 5.28365 4.05583 5.69295 3.86978 6.02783C3.68373 6.36272 3.31164 6.54876 3.01397 6.73481C2.86513 6.80923 2.60466 6.95807 2.56745 7.03248C2.56745 7.1069 2.64187 7.36737 2.71629 7.51621C2.82792 7.85109 2.97676 8.22318 2.90234 8.63249C2.82792 9.00458 2.56745 9.30225 2.3442 9.56272C2.23257 9.67435 2.04652 9.8976 2.04652 10.0092C2.04652 10.0836 2.26978 10.3069 2.3442 10.4557C2.56745 10.7162 2.82792 11.0139 2.90234 11.386C2.97676 11.7953 2.82792 12.1674 2.71629 12.5023C2.64187 12.6511 2.56745 12.9116 2.56745 12.986C2.60466 13.0604 2.86513 13.2092 3.01397 13.2836C3.31164 13.4697 3.68373 13.6557 3.86978 13.9906C4.05583 14.3255 4.05583 14.7348 4.05583 15.0697C4.05583 15.2557 4.05583 15.5162 4.09304 15.5906C4.16745 15.6278 4.42792 15.7023 4.61397 15.7023C4.94885 15.7767 5.35815 15.8139 5.65583 16.0743C5.9535 16.3348 6.10234 16.7069 6.21397 17.0418C6.25118 17.1906 6.3628 17.4511 6.43722 17.5255C6.51164 17.5627 6.77211 17.4883 6.95815 17.4883C7.10699 17.4883 7.33025 17.4511 7.5535 17.4511Z" fill="#7D9B73"/>
<path d="M10.7535 30.8836C10.4558 30.8836 10.1953 30.6232 10.1953 30.3255V10.0464C10.1953 9.74875 10.4558 9.48828 10.7535 9.48828C11.0512 9.48828 11.3116 9.74875 11.3116 10.0464V30.3255C11.3116 30.6232 11.0512 30.8836 10.7535 30.8836Z" fill="#7D9B73"/>
<path d="M10.7535 15.4788C10.6046 15.4788 10.4558 15.4044 10.3442 15.2928C10.1209 15.0695 10.1581 14.6974 10.3814 14.5114L14.9581 10.3067C15.1814 10.0835 15.5535 10.1207 15.7395 10.3439C15.9628 10.5672 15.9256 10.9393 15.7023 11.1253L11.1256 15.33C11.0139 15.4416 10.9023 15.4788 10.7535 15.4788Z" fill="#7D9B73"/>
<path d="M10.7535 17.3395C10.6047 17.3395 10.493 17.3023 10.3814 17.1907L6.7721 13.9535C6.54885 13.7302 6.51164 13.3953 6.73489 13.1721C6.95815 12.9488 7.29303 12.9116 7.51629 13.1349L11.1256 16.3721C11.3488 16.5953 11.3861 16.9302 11.1628 17.1535C11.0512 17.3023 10.9023 17.3395 10.7535 17.3395Z" fill="#7D9B73"/>
<path d="M22.0651 25.079C19.3116 25.079 17.0791 22.8465 17.0791 20.093C17.0791 17.3395 19.3116 15.1069 22.0651 15.1069C24.8186 15.1069 27.0512 17.3395 27.0512 20.093C27.0512 22.8465 24.8186 25.079 22.0651 25.079ZM22.0651 16.2232C19.907 16.2232 18.1954 17.9721 18.1954 20.093C18.1954 22.2139 19.9442 23.9627 22.0651 23.9627C24.186 23.9627 25.9349 22.2139 25.9349 20.093C25.9349 17.9721 24.186 16.2232 22.0651 16.2232Z" fill="#7D9B73"/>
<path d="M22.0651 30.8838C21.7674 30.8838 21.507 30.6233 21.507 30.3257V20.1675C21.507 19.8698 21.7674 19.6094 22.0651 19.6094C22.3628 19.6094 22.6232 19.8698 22.6232 20.1675V30.2884C22.6232 30.6233 22.3628 30.8838 22.0651 30.8838Z" fill="#7D9B73"/>
<path d="M22.0651 23.1069C21.9163 23.1069 21.8047 23.0697 21.693 22.958L19.3861 20.8371C19.1628 20.6139 19.1628 20.279 19.3489 20.0557C19.5721 19.8325 19.907 19.8325 20.1302 20.0185L22.4 22.1394C22.6233 22.3627 22.6233 22.6976 22.4372 22.9208C22.3628 23.0325 22.214 23.1069 22.0651 23.1069Z" fill="#7D9B73"/>
<path d="M22.0651 24.0373C21.9163 24.0373 21.7674 23.9628 21.6558 23.8512C21.4325 23.628 21.4697 23.2559 21.693 23.0698L23.5163 21.4698C23.7395 21.2466 24.1116 21.2838 24.2977 21.507C24.4837 21.7303 24.4837 22.1024 24.2604 22.2884L22.4372 23.8884C22.3256 23.9628 22.1767 24.0373 22.0651 24.0373Z" fill="#7D9B73"/>
<path d="M25.8977 31.4049H6.10233C5.80465 31.4049 5.54419 31.1444 5.54419 30.8467C5.54419 30.549 5.80465 30.2886 6.10233 30.2886H25.8977C26.1954 30.2886 26.4558 30.549 26.4558 30.8467C26.4558 31.1444 26.1954 31.4049 25.8977 31.4049Z" fill="#7D9B73"/>
<path d="M26.1209 10.1211C24.2977 10.1211 22.8465 8.63273 22.8465 6.84668C22.8465 5.06064 24.3349 3.57227 26.1209 3.57227C27.907 3.57227 29.3953 5.06064 29.3953 6.84668C29.3953 8.63273 27.907 10.1211 26.1209 10.1211ZM26.1209 4.68854C24.9302 4.68854 23.9628 5.65599 23.9628 6.84668C23.9628 8.03738 24.9302 9.00482 26.1209 9.00482C27.3116 9.00482 28.2791 8.03738 28.2791 6.84668C28.2791 5.65599 27.3116 4.68854 26.1209 4.68854Z" fill="#7D9B73"/>
<path d="M23.8511 3.75818C23.7767 3.75818 23.6651 3.72097 23.6279 3.64655C23.5535 3.53492 23.5907 3.34888 23.7023 3.27446C24.4093 2.79074 25.2651 2.53027 26.1209 2.53027C26.2697 2.53027 26.4186 2.6419 26.4186 2.82795C26.4186 3.01399 26.307 3.12562 26.1209 3.12562C25.3767 3.12562 24.6325 3.34888 24.0372 3.75818C23.9628 3.75818 23.8884 3.75818 23.8511 3.75818Z" fill="#7D9B73"/>
<path d="M24.9675 10.9768C24.9302 10.9768 24.9302 10.9768 24.893 10.9768C23.0698 10.4559 21.7675 8.74426 21.7675 6.84658C21.7675 5.99077 22.0279 5.17216 22.4744 4.46519C22.5489 4.35356 22.7349 4.31635 22.8465 4.39077C22.9582 4.46519 22.9954 4.65123 22.9209 4.76286C22.5116 5.35821 22.2884 6.1024 22.2884 6.84658C22.2884 8.521 23.4047 9.97216 25.0047 10.4559C25.1535 10.4931 25.2279 10.6419 25.1907 10.7908C25.1907 10.9024 25.0791 10.9768 24.9675 10.9768Z" fill="#7D9B73"/>
<path d="M26.0837 11.1626C25.9349 11.1626 25.786 11.051 25.786 10.865C25.786 10.6789 25.8977 10.5673 26.0837 10.5673C28.1674 10.5673 29.8419 8.89287 29.8419 6.80915C29.8419 5.13473 28.7256 3.68357 27.1256 3.19985C26.9767 3.16264 26.9023 3.0138 26.9395 2.86496C26.9767 2.71613 27.1256 2.64171 27.2744 2.67892C29.0977 3.19985 30.3628 4.91147 30.3628 6.80915C30.4 9.22775 28.4651 11.1626 26.0837 11.1626Z" fill="#7D9B73"/>
</svg>
